<?xml version="1.0" encoding="UTF-8" standalone="no"?>
<!DOCTYPE svg PUBLIC "-//W3C//DTD SVG 1.1//EN" "http://www.w3.org/Graphics/SVG/1.1/DTD/svg11.dtd">
<!-- Generated by Microsoft Visio, SVG Export Drawing1.svg Page-1 -->
<svg xmlns="http://www.w3.org/2000/svg" xmlns:xlink="http://www.w3.org/1999/xlink" xmlns:ev="http://www.w3.org/2001/xml-events"
		xmlns:v="http://schemas.microsoft.com/visio/2003/SVGExtensions/" width="8.26772in" height="11.6929in"
		viewBox="0 0 595.276 841.89" xml:space="preserve" color-interpolation-filters="sRGB" class="st12">
	<v:documentProperties v:langID="1033" v:metric="true" v:viewMarkup="false">
		<v:userDefs>
			<v:ud v:nameU="msvNoAutoConnect" v:val="VT0(1):26"/>
		</v:userDefs>
	</v:documentProperties>

	<style type="text/css">
	<![CDATA[
		.st1 {fill:#ffffff}
		.st2 {stroke:#000000;stroke-linecap:round;stroke-linejoin:round;stroke-width:0.24}
		.st3 {fill:#ffffff;stroke:#000000;stroke-linecap:round;stroke-linejoin:round;stroke-width:0.75;visibility:hidden}
		.st4 {fill:#000000;font-family:Calibri;font-size:0.314964em}
		.st5 {baseline-shift:-32.494%;font-size:0.64988em}
		.st6 {font-size:1em}
		.st7 {fill:none;stroke:none;stroke-linecap:round;stroke-linejoin:round;stroke-width:0.75}
		.st8 {fill:#000000;font-family:Calibri;font-size:0.3937em}
		.st9 {baseline-shift:-32.4923%;font-size:0.649846em}
		.st10 {stroke:#000000;stroke-linecap:round;stroke-linejoin:round;stroke-width:0.75}
		.st11 {fill:#ffffff;stroke:#000000;stroke-linecap:round;stroke-linejoin:round;stroke-width:0.24}
		.st12 {fill:none;fill-rule:evenodd;font-size:12px;overflow:visible;stroke-linecap:square;stroke-miterlimit:3}
	]]>
	</style>

	<g v:mID="0" v:index="1" v:groupContext="foregroundPage">
		<title>Page-1</title>
		<v:pageProperties v:drawingScale="0.0393701" v:pageScale="0.0393701" v:drawingUnits="24" v:shadowOffsetX="8.50394"
				v:shadowOffsetY="-8.50394"/>
		<v:layer v:name="Electrical" v:index="0"/>
		<v:layer v:name="Connector" v:index="1"/>
		<g id="group1-1" transform="translate(191.339,-541.194)" v:mID="1" v:groupContext="group" v:layerMember="0">
			<v:userDefs>
				<v:ud v:nameU="visDescription" v:val="VT4(8-channel multiplexer or demultiplexer.)"/>
				<v:ud v:nameU="visVersion" v:val="VT0(15):26"/>
				<v:ud v:nameU="TextCH" v:prompt="Determines text control handle visibility." v:val="VT0(0):26"/>
				<v:ud v:nameU="AntiScale" v:val="VT0(1):26"/>
			</v:userDefs>
			<title>MUX 8</title>
			<desc>Multiplexer</desc>
			<g id="shape2-2" v:mID="2" v:groupContext="shape" v:layerMember="0">
				<title>Sheet.2</title>
				<path d="M0 841.89 L42.52 841.89 L42.52 785.2 L0 785.2 L0 841.89 Z" class="st1"/>
				<path d="M0 841.89 L42.52 841.89 L42.52 785.2 L0 785.2 L0 841.89" class="st2"/>
				<path d="M2.66 793.7 L2.66 810.71" class="st2"/>
			</g>
			<g id="shape3-6" v:mID="3" v:groupContext="shape" v:layerMember="0" transform="translate(0,-1.1811)">
				<title>Sheet.3</title>
				<desc>S1 S8</desc>
				<v:textBlock v:margins="rect(0,2,0,2)" v:tabSpace="42.5197" v:verticalAlign="0"/>
				<v:textRect cx="3.32185" cy="813.543" width="7.84" height="56.6929"/>
				<rect x="0" y="785.197" width="6.6437" height="56.6929" class="st3"/>
				<text x="1.4" y="793.7" class="st4" v:langID="1033"><v:paragraph v:spLine="0.15748" v:bulletSize="0"/><v:tabList/>S<tspan
							dy="-0.284em" class="st5" v:baseFontSize="3.77953">1<v:newlineChar/><v:newlineChar/></tspan><tspan
							x="1.4" dy="6.185em" class="st6">S</tspan><tspan dy="-0.284em" class="st5" v:baseFontSize="3.77953">8</tspan><v:newlineChar/></text>			</g>
			<g id="shape4-12" v:mID="4" v:groupContext="shape" v:layerMember="0" transform="translate(37.2047,-1.1811)">
				<title>Sheet.4</title>
				<desc>D</desc>
				<v:textBlock v:margins="rect(0,2,0,2)" v:tabSpace="42.5197" v:verticalAlign="0"/>
				<v:textRect cx="2.65748" cy="813.543" width="7.19" height="56.6929"/>
				<rect x="0" y="785.197" width="5.31496" height="56.6929" class="st3"/>
				<text x="1.92" y="793.7" class="st4" v:langID="1033"><v:paragraph v:spLine="0.15748" v:horizAlign="2"/><v:tabList/>D</text>			</g>
			<g id="shape5-15" v:mID="5" v:groupContext="shape" v:layerMember="0">
				<title>Sheet.5</title>
				<desc>C1</desc>
				<v:textBlock v:margins="rect(0,0,0,0)" v:tabSpace="42.5197" v:verticalAlign="2"/>
				<v:textRect cx="5.31496" cy="836.22" width="10.63" height="11.3386"/>
				<rect x="0" y="830.551" width="10.6299" height="11.3386" class="st7"/>
				<text x="3.68" y="839.06" class="st4" v:langID="1033"><v:paragraph v:spLine="0.15748" v:horizAlign="1"
							v:bulletSize="0"/><v:tabList/>C<tspan dy="-0.284em" class="st5" v:baseFontSize="3.77953">1</tspan></text>			</g>
			<g id="shape6-19" v:mID="6" v:groupContext="shape" v:layerMember="0" transform="translate(31.8898,0)">
				<title>Sheet.6</title>
				<desc>ENB</desc>
				<v:textBlock v:margins="rect(0,0,0,0)" v:tabSpace="42.5197" v:verticalAlign="2"/>
				<v:textRect cx="5.31496" cy="836.22" width="10.63" height="11.3386"/>
				<rect x="0" y="830.551" width="10.6299" height="11.3386" class="st7"/>
				<text x="2.14" y="839.06" class="st4" v:langID="1033"><v:paragraph v:spLine="0.15748" v:horizAlign="1"/><v:tabList/>ENB</text>			</g>
			<g id="shape7-22" v:mID="7" v:groupContext="shape" v:layerMember="0" transform="translate(21.2598,0)">
				<title>Sheet.7</title>
				<desc>C3</desc>
				<v:textBlock v:margins="rect(0,0,0,0)" v:tabSpace="42.5197" v:verticalAlign="2"/>
				<v:textRect cx="5.31496" cy="836.22" width="10.63" height="11.3386"/>
				<rect x="0" y="830.551" width="10.6299" height="11.3386" class="st7"/>
				<text x="3.68" y="839.06" class="st4" v:langID="1033"><v:paragraph v:spLine="0.15748" v:horizAlign="1"
							v:bulletSize="0"/><v:tabList/>C<tspan dy="-0.284em" class="st5" v:baseFontSize="3.77953">3</tspan></text>			</g>
			<g id="shape8-26" v:mID="8" v:groupContext="shape" v:layerMember="0" transform="translate(10.6299,0)">
				<title>Sheet.8</title>
				<desc>C2</desc>
				<v:textBlock v:margins="rect(0,0,0,0)" v:tabSpace="42.5197" v:verticalAlign="2"/>
				<v:textRect cx="5.31496" cy="836.22" width="10.63" height="11.3386"/>
				<rect x="0" y="830.551" width="10.6299" height="11.3386" class="st7"/>
				<text x="3.68" y="839.06" class="st4" v:langID="1033"><v:paragraph v:spLine="0.15748" v:horizAlign="1"
							v:bulletSize="0"/><v:tabList/>C<tspan dy="-0.284em" class="st5" v:baseFontSize="3.77953">2</tspan></text>			</g>
			<g id="shape1-30" v:mID="1" v:groupContext="groupContent" v:layerMember="0">
				<v:textBlock v:margins="rect(0,0,0,0)" v:tabSpace="42.5197" v:verticalAlign="2"/>
				<v:textRect cx="21.2598" cy="782.36" width="37.8" height="5.67287"/>
				<text x="10.14" y="783.78" class="st8" v:langID="1033"><v:paragraph v:horizAlign="1"/><v:tabList/>Multiplexer</text>			</g>
		</g>
		<g id="group9-32" transform="translate(280.481,-510.236)" v:mID="9" v:groupContext="group" v:layerMember="0">
			<v:userDefs>
				<v:ud v:nameU="visDescription" v:val="VT4(8-bit register.)"/>
				<v:ud v:nameU="visVersion" v:val="VT0(15):26"/>
				<v:ud v:nameU="TextCH" v:prompt="Determines text control handle visibility." v:val="VT0(0):26"/>
				<v:ud v:nameU="AntiScale" v:val="VT0(1):26"/>
			</v:userDefs>
			<title>8-bit register</title>
			<desc>Register</desc>
			<g id="shape10-33" v:mID="10" v:groupContext="shape" v:layerMember="0">
				<title>Sheet.10</title>
				<path d="M0 841.89 L42.52 841.89 L42.52 771.02 L0 771.02 L0 841.89 Z" class="st1"/>
				<path d="M0 817.09 L5.31 820.63 L0 824.17" class="st2"/>
				<path d="M38.98 785.2 L38.98 801.14" class="st2"/>
				<path d="M0 841.89 L42.52 841.89 L42.52 771.02 L0 771.02 L0 841.89" class="st2"/>
				<path d="M3.54 785.2 L3.54 801.14" class="st2"/>
			</g>
			<g id="shape11-39" v:mID="11" v:groupContext="shape" v:layerMember="0" transform="translate(-1.43885E-13,-1.47638)">
				<title>Sheet.11</title>
				<desc>A H</desc>
				<v:textBlock v:margins="rect(0,2,0,2)" v:tabSpace="42.5197" v:verticalAlign="0"/>
				<v:textRect cx="3.54331" cy="806.457" width="7.81" height="70.8661"/>
				<rect x="0" y="771.024" width="7.08661" height="70.8661" class="st3"/>
				<text x="1.64" y="781.65" class="st8" v:langID="1033"><v:paragraph v:spLine="0.19685" v:bulletSize="0"/><v:tabList/>A<v:newlineChar/><v:newlineChar/><tspan
							x="1.64" dy="6em" class="st6">H</tspan><v:newlineChar/></text>			</g>
			<g id="shape12-43" v:mID="12" v:groupContext="shape" v:layerMember="0" transform="translate(35.4331,-1.47638)">
				<title>Sheet.12</title>
				<desc>Q1 Q8</desc>
				<v:textBlock v:margins="rect(0,2,0,2)" v:tabSpace="42.5197" v:verticalAlign="0"/>
				<v:textRect cx="3.54331" cy="806.457" width="9.81" height="70.8661"/>
				<rect x="0" y="771.024" width="7.08661" height="70.8661" class="st3"/>
				<text x="1.71" y="781.65" class="st8" v:langID="1033"><v:paragraph v:spLine="0.19685" v:horizAlign="2"
							v:bulletSize="0"/><v:tabList/>Q<tspan dy="-0.284em" class="st9" v:baseFontSize="4.72441">1<v:newlineChar/><v:newlineChar/></tspan><tspan
							x="1.71" dy="6.185em" class="st6">Q</tspan><tspan dy="-0.284em" class="st9" v:baseFontSize="4.72441">8</tspan></text>			</g>
			<g id="shape13-49" v:mID="13" v:groupContext="shape" v:layerMember="0" transform="translate(14.1732,0)">
				<title>Sheet.13</title>
				<desc>ENB</desc>
				<v:textBlock v:margins="rect(0,0,0,0)" v:tabSpace="42.5197" v:verticalAlign="2"/>
				<v:textRect cx="7.08661" cy="834.803" width="14.18" height="14.1732"/>
				<rect x="0" y="827.717" width="14.1732" height="14.1732" class="st7"/>
				<text x="3.12" y="838.35" class="st8" v:langID="1033"><v:paragraph v:spLine="0.19685" v:horizAlign="1"/><v:tabList/>ENB</text>			</g>
			<g id="shape9-52" v:mID="9" v:groupContext="groupContent" v:layerMember="0">
				<v:textBlock v:margins="rect(0,0,0,0)" v:tabSpace="42.5197" v:verticalAlign="2"/>
				<v:textRect cx="21.2598" cy="768.187" width="37.8" height="5.67287"/>
				<text x="13.43" y="769.61" class="st8" v:langID="1033"><v:paragraph v:horizAlign="1"/><v:tabList/>Register</text>			</g>
		</g>
		<g id="shape14-54" v:mID="14" v:groupContext="shape" v:layerMember="1" transform="translate(280.481,-529.258)">
			<title>Dynamic connector</title>
			<path d="M0 839.65 L-51.94 839.65 L-51.94 829.95" class="st10"/>
		</g>
		<g id="shape15-57" v:mID="15" v:groupContext="shape" v:layerMember="1" transform="translate(219.685,-534.107)">
			<title>Dynamic connector.15</title>
			<path d="M-1.77 834.8 L-1.77 841.89 L-12.4 841.89 L-12.4 834.8" class="st10"/>
		</g>
		<g id="shape16-60" v:mID="16" v:groupContext="shape" v:layerMember="1" transform="translate(184.252,-592.217)">
			<title>Dynamic connector.16</title>
			<path d="M7.09 841.89 L0 841.89 L0 864.57 L7.09 864.57" class="st10"/>
		</g>
		<g id="shape17-63" v:mID="17" v:groupContext="shape" v:layerMember="1" transform="translate(186.909,-580.879)">
			<title>Dynamic connector.17</title>
			<path d="M4.43 841.89 L-0.3 841.89 A2.3622 2.3622 -180 0 0 -5.02 841.89 L-6.2 841.89 L-6.2 892.2 L9.74 892.2 L9.74 881.57"
					class="st10"/>
		</g>
		<g id="shape18-66" v:mID="18" v:groupContext="shape" v:layerMember="1" transform="translate(280.481,-566.929)">
			<title>Dynamic connector.18</title>
			<path d="M0 834.8 L-10.63 834.8 L-10.63 817.09 L53.15 817.09 L53.15 834.8 L42.52 834.8" class="st10"/>
		</g>
		<g id="shape19-69" v:mID="19" v:groupContext="shape" v:layerMember="1" transform="translate(323,-545.669)">
			<title>Dynamic connector.19</title>
			<path d="M0 841.89 L10.63 841.89 L10.63 795.34 L-89.14 795.34" class="st10"/>
		</g>
		<g id="shape20-72" v:mID="20" v:groupContext="shape" v:layerMember="1" transform="translate(238.287,-592.217)">
			<title>Dynamic connector.20</title>
			<path d="M-4.43 841.89 L6.2 841.89 L6.2 903.54 L-9.74 903.54 L-9.74 892.91" class="st10"/>
		</g>
		<g id="shape21-75" v:mID="21" v:groupContext="shape" v:layerMember="1" transform="translate(280.481,-559.843)">
			<title>Dynamic connector.21</title>
			<path d="M0 841.89 L-33.63 841.89 A2.3622 2.3622 -180 0 0 -38.35 841.89 L-39.54 841.89 L-39.54 867.63 L-49.58 867.63
						 A2.3622 2.3622 -180 0 0 -54.3 867.63 L-62.57 867.63 L-62.57 860.54" class="st10"/>
		</g>
		<g id="shape22-78" v:mID="22" v:groupContext="shape" v:layerMember="1" transform="translate(165.827,-501.378)">
			<title>Dynamic connector.22</title>
			<path d="M0 843.66 L0 854.29 L-20.69 854.29" class="st10"/>
		</g>
		<g id="shape23-81" v:mID="23" v:groupContext="shape" v:layerMember="1" transform="translate(138.047,-507.969)">
			<title>Dynamic connector.23</title>
			<path d="M7.09 841.89 L7.09 860.88" class="st10"/>
		</g>
		<g id="shape24-84" v:mID="24" v:groupContext="shape" v:layerMember="1" transform="translate(204.626,-496.063)">
			<title>Dynamic connector.24</title>
			<path d="M-6.2 841.89 L-7.97 841.89 L-7.97 796.76" class="st10"/>
		</g>
		<g id="group25-87" transform="translate(77.9528,-552.756)" v:mID="25" v:groupContext="group" v:layerMember="0">
			<v:custProps>
				<v:cp v:nameU="Input" v:lbl="No. of Inputs" v:type="1" v:format="2;3;4;5" v:sortKey="2" v:langID="1033"
						v:val="VT4(2)"/>
				<v:cp v:nameU="Type" v:lbl="Gate Type" v:type="1" v:format="OR;AND;NOR;NAND;XOR;XNOR" v:sortKey="1" v:langID="1033"
						v:val="VT4(AND)"/>
				<v:cp v:nameU="Out" v:lbl="No. of Outputs" v:type="1" v:format="1;2;3" v:sortKey="3" v:langID="1033" v:val="VT4(1)"/>
			</v:custProps>
			<v:userDefs>
				<v:ud v:nameU="SubType" v:val="VT0(1):26"/>
				<v:ud v:nameU="Margin" v:val="VT0(0.059055118110236):24"/>
				<v:ud v:nameU="LimitHeight" v:val="VT0(0):26"/>
				<v:ud v:nameU="visVersion" v:val="VT0(15):26"/>
				<v:ud v:nameU="visDescription" v:val="VT4(Represents various forms of logic gates.)"/>
			</v:userDefs>
			<title>Logic gate 2</title>
			<g id="shape26-88" v:mID="26" v:groupContext="shape" v:layerMember="0" transform="translate(0,-4.25197)">
				<title>Sheet.26</title>
				<path d="M0 833.39 L17.01 833.39" class="st2"/>
				<path d="M0 841.89 L17.01 841.89" class="st2"/>
				<path d="M34.02 837.64 L17.01 837.64" class="st2"/>
			</g>
			<g id="shape27-93" v:mID="27" v:groupContext="shape" v:layerMember="0" transform="translate(5.95276,0)">
				<title>Sheet.27</title>
				<v:userDefs>
					<v:ud v:nameU="X" v:val="VT0(0.029527559055118):24"/>
				</v:userDefs>
				<path d="M22.11 833.39 A22.9017 14.031 0 0 1 6.63 841.89 L0 841.89 A32.8126 20.103 -180 0 0 0 824.88 L6.63 824.88
							 A22.5949 13.8431 0 0 1 22.11 833.39 Z" class="st11"/>
			</g>
			<g id="shape28-95" v:mID="28" v:groupContext="shape" v:layerMember="0" transform="translate(0,2.83465)">
				<title>Sheet.28</title>
			</g>
			<g id="shape29-97" v:mID="29" v:groupContext="shape" v:layerMember="0" transform="translate(23.0309,-2.13696)">
				<title>Sheet.29</title>
			</g>
			<g id="shape30-99" v:mID="30" v:groupContext="shape" v:layerMember="0" transform="translate(5.95276,0)">
				<title>Sheet.30</title>
				<path d="M13.61 841.89 L0 841.89 L0 824.88 L13.61 824.88 A8.50394 8.50394 0 0 1 13.61 841.89 Z" class="st11"/>
			</g>
		</g>
	</g>
</svg>
